<?xml version="1.0" encoding="iso-8859-1"?>
<!-- Generator: Adobe Illustrator 19.0.0, SVG Export Plug-In . SVG Version: 6.00 Build 0)  -->
<svg version="1.1" id="Capa_1" xmlns="http://www.w3.org/2000/svg" xmlns:xlink="http://www.w3.org/1999/xlink" x="0px" y="0px"
	 viewBox="0 0 512 512" style="enable-background:new 0 0 512 512;" xml:space="preserve">
<g>
	<g>
		<path d="M257.12,35.378h-19.591c-2.924,0-4.776,1.852-4.776,3.899h-0.001v63.356c0,2.632,3.119,3.996,6.335,3.996
			c3.119,0,6.336-1.364,6.336-3.996V80.02h10.917c12.867,0,22.906-6.14,22.906-22.126v-0.585
			C279.246,41.324,269.499,35.378,257.12,35.378z M266.576,58.869c0,7.603-3.899,11.209-10.235,11.209h-10.917V46.49h10.917
			c6.336,0,10.235,3.606,10.235,11.209V58.869z"/>
	</g>
</g>
<g>
	<g>
		<path d="M382.003,312.479l-34.238-12.101c-4.801-1.699-10.232-0.465-13.833,3.141l-3.907,3.913l-22.63-12.053l-0.002-20.412
			c22.102-14.817,39.791-40.267,44.578-65.509c0.045-0.236,0.085-0.471,0.128-0.706c0.143-0.795,0.282-1.59,0.399-2.385
			c0.13-0.871,0.245-1.739,0.343-2.605c0.038-0.338,0.066-0.675,0.099-1.012c0.081-0.825,0.147-1.648,0.198-2.468
			c0.015-0.249,0.032-0.498,0.044-0.747c0.013-0.249,0.034-0.5,0.044-0.748c11.024-0.017,19.987-8.991,19.987-20.019v-24.686
			c-0.016-5.284-2.936-9.894-7.236-12.339l0.433-0.781c0.008-0.015,0.014-0.031,0.022-0.045c0.122-0.223,0.233-0.454,0.333-0.69
			c0.026-0.063,0.045-0.128,0.07-0.191c0.071-0.183,0.138-0.367,0.194-0.557c0.026-0.089,0.046-0.179,0.069-0.268
			c0.042-0.165,0.082-0.33,0.113-0.499c0.019-0.103,0.033-0.205,0.047-0.309c0.022-0.157,0.041-0.314,0.053-0.474
			c0.008-0.111,0.013-0.221,0.017-0.332c0.003-0.081,0.012-0.16,0.012-0.241V99.821c0-51.723-42.08-93.802-93.802-93.802h-35.075
			c-51.723,0-93.802,42.08-93.802,93.802v37.391c-0.001,0.068,0.011,0.138,0.012,0.206c0.002,0.24,0.015,0.48,0.04,0.719
			c0.011,0.102,0.019,0.203,0.034,0.306c0.05,0.337,0.117,0.672,0.213,1c0.001,0.005,0.002,0.01,0.003,0.015
			c0.006,0.02,0.016,0.037,0.022,0.056c0.099,0.326,0.225,0.644,0.37,0.956c0.043,0.092,0.086,0.183,0.132,0.274
			c0.037,0.072,0.066,0.147,0.105,0.218l0.433,0.782c-4.3,2.447-7.22,7.061-7.236,12.36v24.664c0,11.025,8.959,19.997,19.979,20.019
			c0.011,0.301,0.036,0.605,0.051,0.907c0.012,0.238,0.026,0.476,0.04,0.714c0.053,0.875,0.124,1.754,0.212,2.635
			c0.025,0.257,0.045,0.514,0.073,0.772c0.109,0.986,0.239,1.974,0.39,2.965c0.084,0.56,0.186,1.119,0.284,1.68
			c0.073,0.418,0.146,0.836,0.227,1.254c0.135,0.708,0.28,1.416,0.435,2.124c0.026,0.116,0.054,0.232,0.08,0.348
			c5.458,24.386,22.7,48.66,44.047,62.982l-0.002,20.212l-22.624,12.057l-3.91-3.916c-3.6-3.605-9.029-4.837-13.833-3.141
			L58.855,337.623c-30.867,10.909-52.156,39.095-54.236,71.808c-0.26,4.093,2.847,7.623,6.94,7.883
			c0.161,0.01,0.32,0.015,0.479,0.015c3.886,0,7.154-3.022,7.404-6.955c1.702-26.765,19.115-49.824,44.362-58.746l104.451-36.915
			l6.583,6.593c0.186,0.186,0.376,0.366,0.563,0.55c0,0,0.001,0.001,0.002,0.002c0.006,0.006,0.013,0.012,0.019,0.018
			c21.53,21.263,50.109,32.968,80.578,32.968c29.497,0,57.223-10.971,78.496-30.963c0.001-0.001,0.002-0.002,0.004-0.003
			c0.693-0.651,1.379-1.312,2.058-1.982c0.015-0.014,0.03-0.029,0.045-0.043c0.002-0.002,0.003-0.004,0.005-0.005
			c0.184-0.182,0.372-0.359,0.556-0.543l6.583-6.593l33.307,11.771c3.867,1.368,8.11-0.66,9.477-4.527
			S385.871,313.846,382.003,312.479z M353.269,163.491h0.001c1.376-1.731,2.636-3.572,3.728-5.543l1.145-2.067l0.215-0.389v23.275
			c0,2.822-2.276,5.115-5.089,5.158V163.491z M158.73,183.925c-2.812-0.042-5.089-2.336-5.089-5.158v-23.275l1.361,2.456
			c1.092,1.971,2.352,3.812,3.728,5.543V183.925z M159.513,127.66V99.821c0-43.533,35.417-78.949,78.949-78.949h35.075
			c43.533,0,78.949,35.417,78.949,78.949v27.839C289.153,111.279,222.847,111.279,159.513,127.66z M171.605,155.71
			c-0.009-0.009-0.019-0.017-0.028-0.026c-0.218-0.235-0.441-0.465-0.65-0.71c-1.105-1.291-2.09-2.704-2.932-4.224l-4.825-8.709
			c60.931-15.77,124.73-15.77,185.661,0l-4.825,8.709c-1.002,1.808-2.215,3.454-3.583,4.935c-0.008,0.009-0.018,0.016-0.027,0.025
			c-2.706,2.921-6.042,5.143-9.698,6.529c-0.01,0.004-0.019,0.007-0.029,0.011c-0.382,0.144-0.768,0.279-1.157,0.404
			c-0.066,0.021-0.133,0.041-0.199,0.062c-1.025,0.323-2.072,0.576-3.132,0.768c-0.249,0.044-0.498,0.09-0.75,0.128
			c-0.227,0.034-0.456,0.062-0.684,0.09c-0.317,0.038-0.636,0.071-0.956,0.097c-0.183,0.015-0.366,0.032-0.549,0.044
			c-0.512,0.031-1.026,0.052-1.544,0.052H190.304c-0.517,0-1.031-0.021-1.544-0.052c-0.184-0.011-0.366-0.028-0.549-0.044
			c-0.32-0.026-0.639-0.059-0.956-0.097c-0.228-0.028-0.457-0.056-0.684-0.09c-0.251-0.037-0.5-0.083-0.75-0.128
			c-1.061-0.192-2.108-0.445-3.133-0.768c-0.066-0.021-0.132-0.041-0.198-0.062c-0.389-0.126-0.775-0.26-1.158-0.405
			c-0.009-0.003-0.019-0.007-0.028-0.011C177.647,160.852,174.311,158.631,171.605,155.71z M173.939,202.42
			c-0.012-0.107-0.024-0.215-0.036-0.322c-0.093-0.843-0.164-1.684-0.216-2.52c-0.007-0.111-0.017-0.222-0.023-0.333
			c-0.052-0.932-0.082-1.86-0.082-2.781v-21.365c0.027,0.012,0.054,0.022,0.081,0.034c0.587,0.266,1.179,0.518,1.779,0.756
			c0.108,0.043,0.216,0.083,0.324,0.125c1.739,0.673,3.528,1.226,5.357,1.654c0.23,0.054,0.458,0.115,0.688,0.165
			c0.427,0.092,0.858,0.169,1.29,0.247c0.397,0.073,0.795,0.143,1.195,0.203c0.374,0.056,0.748,0.108,1.124,0.154
			c0.502,0.062,1.006,0.111,1.511,0.154c0.3,0.025,0.6,0.055,0.901,0.074c0.821,0.051,1.644,0.084,2.471,0.084h131.393
			c0.826,0,1.65-0.033,2.471-0.084c0.302-0.019,0.601-0.049,0.901-0.074c0.505-0.043,1.009-0.092,1.511-0.154
			c0.376-0.046,0.75-0.097,1.124-0.154c0.4-0.061,0.798-0.131,1.195-0.203c0.431-0.078,0.862-0.155,1.289-0.247
			c0.231-0.05,0.459-0.111,0.689-0.165c1.829-0.428,3.617-0.981,5.355-1.653c0.108-0.042,0.217-0.083,0.326-0.125
			c0.599-0.238,1.192-0.49,1.778-0.755c0.027-0.012,0.054-0.022,0.081-0.034v21.169c0,0.921-0.03,1.848-0.082,2.78
			c-0.007,0.121-0.017,0.243-0.025,0.365c-0.051,0.819-0.122,1.641-0.212,2.466c-0.014,0.133-0.029,0.266-0.044,0.399
			c-3.422,29.369-30.85,62.544-58.768,69.486l-0.982,0.245c-20.296,5.047-25.434,5.035-45.807-0.102
			C204.672,264.89,177.331,231.711,173.939,202.42z M193.508,318.122l17.655-9.408c4.994-1.901,8.294-6.642,8.294-12.052
			l0.001-13.491c3.1,1.274,6.241,2.339,9.409,3.138c11.481,2.895,19.065,4.337,26.666,4.337c7.514,0,15.044-1.411,26.359-4.225
			l0.982-0.245c3.255-0.809,6.482-1.895,9.665-3.204l0.001,13.688c0,5.409,3.299,10.152,8.294,12.053l17.66,9.407
			C282.208,347.231,229.795,347.235,193.508,318.122z"/>
	</g>
</g>
<g>
	<g>
		<path d="M511.953,480.86l-4.572-71.43c-2.081-32.713-23.369-60.899-54.236-71.808l-25-8.836c-3.868-1.366-8.111,0.66-9.477,4.528
			c-1.367,3.867,0.66,8.11,4.527,9.477l25,8.836c25.247,8.923,42.66,31.982,44.362,58.749l4.572,71.43
			c0.156,2.448-0.682,4.779-2.358,6.565c-1.67,1.779-3.93,2.758-6.366,2.758h-60.293v-92.897c0-4.102-3.325-7.427-7.427-7.427
			s-7.427,3.325-7.427,7.427v92.897H98.741v-92.897c0-4.102-3.325-7.427-7.427-7.427c-4.102,0-7.427,3.325-7.427,7.427v92.897
			H23.594c-2.436,0-4.696-0.98-6.366-2.758c-1.676-1.787-2.514-4.118-2.358-6.563l1.424-22.255c0.262-4.093-2.844-7.624-6.937-7.886
			c-4.096-0.252-7.624,2.844-7.886,6.937l-1.424,22.258c-0.413,6.491,1.902,12.932,6.35,17.672
			c4.441,4.733,10.71,7.448,17.197,7.448h464.812c6.487,0,12.755-2.714,17.197-7.448
			C510.051,493.795,512.366,487.354,511.953,480.86z"/>
	</g>
</g>
<g>
	<g>
		<path d="M376.63,395.375h-50.479c-9.106,0-16.514,7.408-16.514,16.514v13.961c0,9.106,7.408,16.514,16.514,16.514h50.479
			c9.106,0,16.514-7.408,16.514-16.514v-13.961C393.144,402.783,385.736,395.375,376.63,395.375z M378.291,425.85
			c0,0.916-0.745,1.661-1.661,1.661h-50.479c-0.916,0-1.661-0.745-1.661-1.661v-13.961c0-0.916,0.745-1.661,1.661-1.661h50.479
			c0.916,0,1.661,0.745,1.661,1.661V425.85z"/>
	</g>
</g>
<g>
</g>
<g>
</g>
<g>
</g>
<g>
</g>
<g>
</g>
<g>
</g>
<g>
</g>
<g>
</g>
<g>
</g>
<g>
</g>
<g>
</g>
<g>
</g>
<g>
</g>
<g>
</g>
<g>
</g>
</svg>
