<svg height="512pt" viewBox="-102 0 512 512" width="512pt" xmlns="http://www.w3.org/2000/svg"><path d="m301.171875 418.003906c4.144531 0 7.5-3.359375 7.5-7.5v-6.015625c0-11.480469-6.792969-21.894531-17.308594-26.535156l-31.734375-13.984375c-.070312-.035156-.144531-.066406-.21875-.097656l-11.175781-4.925782c-1.148437-.507812-1.894531-1.648437-1.894531-2.910156v-32.246094c0-9.339843-4.957032-17.542968-12.375-22.125 7.066406-9.527343 12.621094-19.277343 16.445312-28.773437h5.316406c14.519532 0 26.578126-10.734375 28.660157-24.679687 7.328125-3.636719 12.722656-13.601563 14.578125-27.148438 2.863281-20.9375-3.925782-35.484375-12.085938-43.058594-1.183594-13.984375-5.878906-48.835937-24.179687-80.992187-10.578125-18.582031-24.058594-33.296875-40.078125-43.730469-2.269532-1.476562-4.589844-2.867188-6.960938-4.171875.011719-.335937.015625-.671875.015625-1.007813 0-26.523437-27.515625-48.101562-61.339843-48.101562-36.851563 0-61.980469 24.210938-61.324219 49.109375-6.894531 3.804687-13.375 8.335937-19.417969 13.59375-3.125 2.71875-3.453125 7.453125-.734375 10.578125s7.457031 3.457031 10.578125.738281c18.804688-16.355469 42.65625-24.648437 70.898438-24.648437 18.6875 0 35.359374 3.585937 49.949218 10.71875.078125.039062.15625.078125.238282.117187 16.035156 7.894531 29.539062 20.085938 40.410156 36.515625-28.324219-12.765625-59.210938-19.433594-90.597656-19.433594-31.382813 0-62.269532 6.667969-90.59375 19.433594.351562-.535156.710937-1.066406 1.074218-1.597656 2.339844-3.417969 1.464844-8.085938-1.953125-10.425781-3.417969-2.339844-8.085937-1.464844-10.425781 1.953125-23.652344 34.5625-29.3125 75.40625-30.648438 91.351562-8.15625 7.574219-14.945312 22.125-12.078124 43.058594 1.851562 13.546875 7.246093 23.511719 14.574218 27.148438 2.082032 13.945312 14.140625 24.679687 28.660156 24.679687h5.316407c3.824219 9.496094 9.378906 19.246094 16.445312 28.773437-7.417969 4.582032-12.375 12.785157-12.375 22.125v32.246094c0 1.261719-.742187 2.402344-1.898437 2.910156l-11.1875 4.933594c-.058594.023438-.117188.050782-.171875.074219l-31.769531 14.003906c-10.511719 4.640625-17.304688 15.054688-17.304688 26.53125v57.726563c0 7.929687 4.625 15.300781 11.78125 18.785156 41.675781 20.28125 90.972656 31 142.554688 31 51.585937 0 100.878906-10.71875 142.558593-31 7.15625-3.484375 11.777344-10.855469 11.777344-18.785156v-21.984375c0-4.140625-3.355469-7.5-7.5-7.5-4.140625 0-7.5 3.359375-7.5 7.5v21.984375c0 2.261718-1.28125 4.292968-3.34375 5.296875-8.140625 3.964843-16.597656 7.542969-25.320313 10.726562v-32.558593c0-4.140626-3.355468-7.5-7.5-7.5-4.140624 0-7.5 3.359374-7.5 7.5v37.570312c-27.542968 8.375-57.351562 13.019531-88.171874 13.671875v-50.304687l95.5-67.269532 27.976562 12.332032c5.078125 2.242187 8.359375 7.269531 8.359375 12.808593v6.015625c0 4.140625 3.359375 7.5 7.5 7.5zm-192.371094-376.058594c4.050781-15.320312 22.929688-26.945312 45.535157-26.945312 22.609374 0 41.492187 11.628906 45.539062 26.949219-13.847656-5.039063-29.082031-7.578125-45.539062-7.578125-16.488282 0-31.703126 2.535156-45.535157 7.574218zm-18.097656 255.867188c-9.285156-11.441406-16.1875-23.464844-20.042969-34.613281-.046875-.160157-.101562-.316407-.15625-.46875-.746094-2.199219-1.371094-4.367188-1.871094-6.484375 21.839844 7.035156 49.089844 8.386718 62.125 1.699218 4.839844-2.484374 8.53125-6.164062 11.792969-9.414062 4.742188-4.726562 7.628907-7.402344 11.785157-7.402344 4.015624 0 7.066406 2.8125 11.71875 7.402344 3.296874 3.25 7.03125 6.933594 11.863281 9.414062 5.800781 2.976563 14.414062 4.359376 24.113281 4.359376 12.101562 0 25.890625-2.15625 38.011719-6.0625-.5 2.121093-1.125 4.285156-1.871094 6.488281-.058594.152343-.113281.308593-.160156.46875-3.851563 11.148437-10.757813 23.171875-20.039063 34.613281zm-51.390625-137.203125c69.207031-46.917969 160.910156-46.90625 230.101562.035156 1.664063 9.085938 2.371094 16.359375 2.667969 20.527344-2.589843-5.386719-6.898437-9.882813-12.453125-12.722656-26.601562-13.585938-63.996094-21.070313-105.292968-21.070313-41.292969 0-78.6875 7.484375-105.292969 21.070313-5.554688 2.839843-9.859375 7.335937-12.449219 12.71875.261719-3.640625.960938-11.039063 2.71875-20.558594zm11.613281 68.367187c-.082031-.128906-.171875-.257812-.261719-.386718-.042968-.058594-.085937-.117188-.128906-.171875-1.039062-1.558594-1.691406-3.246094-1.691406-5.027344v-30.097656c0-4.871094 2.691406-9.269531 7.019531-11.484375 24.535157-12.527344 59.503907-19.429688 98.472657-19.429688s73.941406 6.902344 98.472656 19.429688c4.332031 2.210937 7.019531 6.613281 7.019531 11.484375v30.097656c0 1.78125-.648437 3.46875-1.691406 5.027344-.042969.058593-.085938.113281-.125.171875-.09375.125-.179688.253906-.265625.386718-1.96875 2.667969-5.027344 4.933594-7.761719 6.605469-1.246094.761719-2.558594 1.484375-3.933594 2.175781-.242187.101563-.472656.214844-.699219.339844-19.398437 9.414063-50.007812 11.929688-60.585937 6.5-2.785156-1.425781-5.40625-4.011718-8.175781-6.746094-5.292969-5.222656-11.882813-11.722656-22.253906-11.722656-10.558594 0-17.109376 6.53125-22.375 11.777344-2.722657 2.714844-5.296876 5.277344-8.050782 6.691406-10.582031 5.429688-41.191406 2.917969-60.589844-6.5-.222656-.125-.457031-.238281-.695312-.339844-1.375-.691406-2.691406-1.414062-3.9375-2.175781-2.734375-1.671875-5.789062-3.9375-7.761719-6.605469zm204.800781 28.914063h-.675781c.613281-2.9375 1.039063-5.816406 1.265625-8.628906.503906-.289063 1-.582031 1.488282-.878907 2.785156-1.703124 5.136718-3.449218 7.117187-5.207031 2.109375 1.792969 2.710937 2.546875 4.460937 3.738281-1.378906 6.269532-6.980468 10.976563-13.65625 10.976563zm28.519532-40c-1.144532 10.019531-4.671875 15.644531-6.25 16.730469-.1875-.109375-.480469-.3125-.871094-.671875-1.105469-1.019531-2.292969-2.054688-3.558594-3.097657.941406-2.722656 1.261719-5.261718 1.261719-7.464843v-30.097657c0-2.226562-.257813-4.414062-.761719-6.515624.367188.402343.777344.769531 1.230469 1.089843 8.449219 6 10.101563 19.925781 8.949219 30.027344zm-129.910156-125.601563c36.269531 0 71.820312 9.550782 102.980468 27.640626 2.703125 6.328124 5.082032 12.980468 7.125 19.90625-33.941406-19.597657-72.019531-29.394532-110.105468-29.394532-38.070313 0-76.140626 9.792969-110.074219 29.378906 1.882812-6.402343 4.214843-13.125 7.101562-19.894531 31.15625-18.089843 66.707031-27.636719 102.972657-27.636719zm-120.957032 95.578126c.449219-.320313.863282-.6875 1.226563-1.09375-.5 2.105468-.761719 4.289062-.761719 6.519531v30.097656c0 2.199219.324219 4.738281 1.265625 7.460937-1.265625 1.039063-2.453125 2.074219-3.554687 3.09375-.394532.363282-.6875.566407-.875.675782-1.582032-1.089844-5.105469-6.714844-6.25-16.734375-1.15625-10.097657.5-24.023438 8.949218-30.019531zm19.566406 70.023437c-6.675781 0-12.273437-4.707031-13.652343-10.976563 1.757812-1.199218 2.308593-1.910156 4.460937-3.738281 1.980469 1.757813 4.328125 3.503907 7.113282 5.207031.488281.296876.984374.589844 1.492187.878907.226563 2.8125.648437 5.691406 1.265625 8.628906zm24.390626 98.144531v-32.246094c0-6.054687 4.921874-10.976562 10.976562-10.976562h58.523438v115.457031l-79.5-56c6.105468-3.074219 10-9.347656 10-16.234375zm-62.335938 106.179688v-57.726563c0-5.539062 3.28125-10.566406 8.359375-12.808593l27.980469-12.332032 95.496094 67.273438v50.300781c-30.816407-.648437-60.628907-5.296875-88.171876-13.671875v-37.566406c0-4.144532-3.355468-7.5-7.5-7.5-4.140624 0-7.5 3.355468-7.5 7.5v32.554687c-8.722656-3.183593-17.175781-6.761719-25.316406-10.722656-2.066406-1.007813-3.347656-3.035156-3.347656-5.300781zm146.835938-149.402344h58.527343c6.050781 0 10.976563 4.921875 10.976563 10.976562v32.246094c0 6.886719 3.894531 13.160156 9.996094 16.234375l-79.5 56.003907zm0 0"/><path d="m179.109375 321.59375c-4.140625 0-7.5 3.359375-7.5 7.5v27.75c0 4.140625 3.359375 7.5 7.5 7.5 4.144531 0 7.5-3.359375 7.5-7.5v-27.75c0-4.140625-3.355469-7.5-7.5-7.5zm0 0"/><path d="m129.5625 364.34375c4.144531 0 7.5-3.359375 7.5-7.5v-27.75c0-4.140625-3.355469-7.5-7.5-7.5-4.140625 0-7.5 3.359375-7.5 7.5v27.75c0 4.140625 3.359375 7.5 7.5 7.5zm0 0"/><path d="m172.023438 268.574219c-5.292969 3.667969-11.40625 5.609375-17.6875 5.609375-6.277344 0-12.394532-1.941406-17.6875-5.609375-3.40625-2.363281-8.078126-1.515625-10.4375 1.890625-2.359376 3.402344-1.511719 8.078125 1.890624 10.4375 7.816407 5.417968 16.886719 8.28125 26.234376 8.28125 9.347656 0 18.421874-2.863282 26.234374-8.28125 3.40625-2.359375 4.25-7.035156 1.894532-10.4375-2.363282-3.402344-7.03125-4.25-10.441406-1.890625zm0 0"/></svg>